<svg xmlns="http://www.w3.org/2000/svg" xmlns:xlink="http://www.w3.org/1999/xlink" viewBox="0,0,256,256" width="240px" height="240px" fill-rule="none"><g fill="none" fill-rule="none" stroke="none" stroke-width="none" stroke-linecap="butt" stroke-linejoin="none" stroke-miterlimit="10" stroke-dasharray="" stroke-dashoffset="0" font-family="none" font-weight="none" font-size="none" text-anchor="none" style="mix-blend-mode: normal"><path transform="scale(5.33333,5.33333)" d="M38,42h-28c-2.209,0 -4,-1.791 -4,-4v-28c0,-2.209 1.791,-4 4,-4h28c2.209,0 4,1.791 4,4v28c0,2.209 -1.791,4 -4,4z" id="strokeMainSVG" fill="#ffffff" fill-rule="evenodd" stroke="#ffffff" stroke-width="3" stroke-linejoin="round"></path><g transform="scale(5.33333,5.33333)" stroke="none" stroke-width="1" stroke-linejoin="miter"><path d="M38,42h-28c-2.209,0 -4,-1.791 -4,-4v-28c0,-2.209 1.791,-4 4,-4h28c2.209,0 4,1.791 4,4v28c0,2.209 -1.791,4 -4,4z" fill="#212121" fill-rule="evenodd"></path><path d="M34.257,34h-6.437l-13.991,-20h6.437zM28.587,32.304h2.563l-11.651,-16.608h-2.563z" fill="#ffffff" fill-rule="nonzero"></path><path d="M15.866,34l7.203,-8.344l-0.942,-1.249l-8.304,9.593z" fill="#ffffff" fill-rule="nonzero"></path><path d="M24.45,21.721l0.905,1.289l7.781,-9.01h-2z" fill="#ffffff" fill-rule="nonzero"></path></g></g></svg>